<svg xmlns="http://www.w3.org/2000/svg" version="1.1" viewBox="0 0 360 240" role="img" aria-label="Archipelago"><g><path d="M106.479 24L112 23.6934L120 22.8951L122.7814 24L122.4001 32L120 35.0318L113.9174 40L112 41.1906L104.0783 48L104 48.6971L103.7759 48L102.1561 40L101.1892 32L104 25.1216L106.479 24ZM187.6111 24L192 22.8025L200 22.72L208 23.7481L209.097 24L216 25.4556L224 26.6814L232 25.1583L240 24.2558L248 24.2066L256 24.0556L256.1712 24L264 21.9504L272 21.6193L280 22.5166L282.7433 24L288 28.8435L293.9947 32L296 33.243L300.2547 32L304 31.173L306.3379 32L312 36.3358L316.5031 40L320 42.1193L324.7737 48L323.2707 56L320 59.6382L312 62.0946L307.133 64L304 65.2029L299.246 72L304 77.1611L306.2674 80L311.2878 88L312 89.577L313.8957 96L316.6552 104L317.4127 112L313.9853 120L312 124.8263L311.1247 128L304 133.0996L298.0089 136L296 137.3439L289.2119 136L288 135.5771L282.012 128L281.5579 120L280 116.9477L276.8931 112L279.025 104L280 103.0475L284.5274 96L288 89.2773L290.0254 88L296 81.6531L299.9255 80L296 76.5042L294.0678 72L288 69.0051L282.8973 64L280 60.209L274.637 56L272 53.7867L264 54.4463L259.4734 56L256 56.7008L248.61 64L248 65.3781L245.8725 72L242.4902 80L240 85.371L232 87.9443L231.9342 88L224 93.4613L222.3207 96L220.3908 104L224 109.1669L232 110.2366L236.2224 112L240 113.9774L248 116.4964L251.808 120L248 126.6326L246.8101 128L248 130.1339L250.3666 136L256 139.631L264 142.7982L265.0856 144L272 149.4519L276.3912 152L280 154.424L285.2741 160L288 161.6357L296 163.8695L300.3101 168L303.5581 176L304 176.4251L311.6345 184L312 185.0582L314.2449 192L317.2678 200L312 206.1245L310.2052 208L304 213.3037L296 215.7716L288 214.4244L280 213.5126L272 211.9356L264 212.4595L256 213.0173L248 211.3639L243.1763 208L241.9639 200L242.7784 192L248 188.7617L255.5476 184L256 183.6662L259.5156 176L260.7219 168L256 163.1535L253.8133 160L248 155.273L240 152.6367L238.4151 152L232 146.8851L224 149.5839L219.6439 152L217.9764 160L216 165.4118L214.6648 168L208 173.369L200 170.7934L192 170.0591L190.8401 168L188.5587 160L184.1636 152L184 151.7247L177.5895 144L176 138.1478L175.3307 136L168 128.2197L160.6251 136L160 136.3842L158.254 136L155.0094 128L158.1916 120L152 118.4958L144 118.4L136 119.6216L128 117.6668L120.0294 120L128 126.7091L129.7466 128L133.8571 136L128 139.6046L120 136.0176L119.9764 136L112 129.259L111.0878 128L110.2974 120L105.683 112L112 108.3636L113.3884 104L112 99.916L107.7842 96L104 94.0897L102.2216 96L96.4205 104L96 104.2513L88 109.3357L80 111.5129L79.101 112L72 115.8828L67.9075 120L64 123.8613L59.8683 128L56 135.2309L54.8654 136L48 138.4017L40 138.714L32 136.798L31.8113 136L26.1134 128L24 123.0134L22.8264 120L20.6466 112L21.1118 104L23.1654 96L24 94.5705L29.9777 88L32 85.4847L40 84.2686L48 86.1612L56 82.5467L60.2843 80L59.5388 72L61.2777 64L62.6984 56L62.7902 48L64 46.2941L72 42.1805L79.0377 48L80 50.213L87.6796 56L88 56.2154L96 63.5399L104 57.1972L112 61.1401L120 61.4644L125.9424 64L128 64.6838L136 64.0421L136.0437 64L137.5668 56L142.2021 48L144 43.2513L146.6025 40L144 35.8777L142.1459 32L144 29.0137L152 27.4846L160 24.1556L168 28.2033L176 25.9346L184 25.2559L187.6111 24ZM165.2588 40L168 37.3802L174.7219 40L176 40.3772L183.3107 48L184 51.3532L185.8002 56L188.2431 64L192 66.2139L200 69.9067L200.7853 72L200 72.3861L193.8826 80L193.124 88L192 89.6502L184 94.6144L182.1405 96L179.1657 104L180.0589 112L176 113.9496L172.518 112L173.9005 104L168 102.1306L162.1821 96L160 93.4721L157.1728 88L153.8984 80L152 74.9408L148.9269 72L152 69.6445L155.2555 64L158.8025 56L159.044 48L160 45.551L165.2588 40ZM27.3339 48L32 44.8227L40 47.1788L40.4433 48L40 48.756L35.2334 56L32 59.7638L24 60.2692L22.2096 56L24 51.8878L27.3339 48ZM185.1213 128L192 122.3909L196.6805 128L194.5384 136L192 138.196L186.7817 136L185.1213 128ZM148.5014 160L152 154.286L159.8152 160L160 160.0452L168 162.3425L172.6619 168L175.2401 176L176 182.0229L179.6796 184L181.8473 192L184 193.1816L188.72 192L185.1025 184L192 179.2283L196.5692 184L192.8926 192L193.6814 200L192 201.8587L187.2738 208L184 210.8807L176 214.0208L169.8282 216L168 216.3756L166.1323 216L160 214.4398L152.5392 216L152 216.0957L144 217.3128L136 217.4897L128 217.238L124.9032 216L123.7011 208L123.4895 200L125.4676 192L124.0875 184L128 180.1284L131.8587 176L136 172.8198L140.3304 168L144 163.1097L148.5014 160ZM31.4193 192L32 191.2826L33.6468 192L40 194.5362L47.0737 192L48 191.5362L56 185.3896L64 188.2894L70.9546 192L72 193.3575L75.2822 200L80 203.1194L88 206.6583L91.1377 208L96 215.9578L96.0333 216L96 216.0168L88 216.3647L80 219.3662L72 219.4022L64 217.2893L56 216.1357L55.3661 216L48 212.929L40 213.8185L33.2698 208L32.9504 200L32 195.7727L31.4193 192Z" fill-rule="evenodd" fill="var(--color, #cf4d9b)" fill-opacity="0.3"/><path d="M109.088 32L112 29.4645L115.9576 32L112 34.9829L109.088 32ZM156.7465 32L160 30.7937L162.0332 32L160 33.9494L156.7465 32ZM172.4102 32L176 30.164L184 28.3521L192 25.294L200 24.9332L208 25.4448L216 27.2602L224 28.9791L232 27.5659L240 26.7106L248 26.5024L256 27.4139L264 24.858L272 24.0095L280 25.3829L286.9968 32L288 33.2727L296 38.5767L303.0254 40L304 45.0673L312 47.016L315.6851 48L312 48.9527L304 48.3619L300.1049 56L296.5381 64L296 64.7008L288 65.9201L286.0425 64L280 56.0937L279.8806 56L272 49.3857L264 48.5447L256 51.5049L253.1685 56L248 61.1044L244.9184 64L243.3238 72L240 78.8571L237.5772 80L232 82.6493L225.6783 88L224 89.1552L219.4723 96L217.2229 104L222.5447 112L224 113.5377L232 113.9828L240 118.3739L244.7768 120L240 126.108L239.442 128L240 128.6004L245.6856 136L248 138.9158L256 143.2174L257.8521 144L264 146.8111L271.0534 152L272 153.5994L280 158.0185L281.8742 160L288 163.6758L296 166.885L297.1634 168L300.6159 176L304 179.2558L308.7816 184L311.4874 192L312 193.4387L314.2187 200L312 202.5796L306.8127 208L304 210.4041L296 213.8303L288 212.8044L280 211.1006L272 208.4656L264 210.2747L256 211.1566L248 208.1205L247.8271 208L244.6402 200L248 194.1193L252.1527 192L256 189.554L260.144 184L262.6879 176L264 171.7357L265.3573 168L264 164.3872L259.8212 160L256 158.3664L248 152.2978L247.0813 152L240 148.0346L235.0285 144L232 142.1405L229.2862 144L224 146.6927L216 150.4497L214.1364 152L208 159.8088L207.6371 160L208 160.5629L209.6182 168L208 169.3036L204.724 168L200 164.1985L194.9472 160L192 157.9233L188.4006 152L184 144.5921L183.5086 144L184 143.2157L192 143.1533L200 136.2535L200.181 136L200.9895 128L200 123.3501L197.5888 120L192 116.1146L184.604 120L184 120.4491L176 123.5668L173.0315 120L176 118.973L184 119.3959L187.8849 112L186.9371 104L188.4422 96L192 93.7829L195.9389 88L197.2518 80L200 76.5796L208 72.5398L208.6218 72L209.8362 64L208.0231 56L208 55.9056L200 52.5541L196.8391 48L192 45.9919L184 44.523L179.5592 40L176 34.4968L172.4102 32ZM67.1916 48L72 45.2981L75.2675 48L72.4426 56L80 60.773L88 63.9501L88.0523 64L96 69.1813L104 64.0736L111.8927 72L110.3231 80L112 84.3979L117.4437 88L120 88.4796L120.3436 88L120.9925 80L120 75.9007L112.2479 72L120 69.0815L128 68.1848L136 68.8387L141.0201 64L140.5141 56L144 49.6366L147.3741 48L152 40.223L154.0731 48L155.3815 56L152.3187 64L152 64.5525L144 69.589L141.7473 72L144 73.0785L151.1228 80L152 80.9462L155.1219 88L159.1938 96L160 103.5169L160.3693 104L160 104.7763L158.7731 112L152 115.5423L144 115.301L136 114.498L128 114.1649L124.393 112L120 108.9448L116.3684 104L114.1714 96L112 90.1374L104 89.3261L97.7868 96L96 98.3892L90.7816 104L88 105.7888L80 108.8905L74.2608 112L72 113.2362L65.2767 120L64 121.2616L57.2729 128L56 130.3795L48 135.8339L40 135.0468L32 132.7923L28.5471 128L25.1734 120L24 117.1742L22.4397 112L22.9737 104L24 100.3481L25.5953 96L32 89.2013L40 88.5111L48 89.5808L50.6958 88L56 85.9265L64 81.1312L65.2423 80L65.5881 72L72 66.8277L76.3815 64L72 56.5341L71.8013 56L67.1916 48ZM299.7414 88L304 87.1462L304.6001 88L309.3319 96L312 101.583L312.9165 104L312 111.9009L311.9846 112L310.3632 120L308.1891 128L304 130.9984L296 133.869L288 130.4592L286.0565 128L284.917 120L280.847 112L282.3313 104L286.6403 96L288 93.3677L296 88.3119L299.7414 88ZM119.6281 128L120 127.725L120.3132 128L120 128.2755L119.6281 128ZM142.6244 168L144 166.1668L152 160.8254L160 162.4629L168 165.8715L169.754 168L172.7277 176L168 183.6655L167.743 184L164.8231 192L168 195.9021L176 193.7824L184 197.6459L187.4547 200L184 205.1046L181.7877 208L176 210.643L168 211.8079L160 211.7022L152 213.7889L144 215.0452L136 214.8523L129.3314 208L129.2108 200L129.3435 192L128 185.5162L127.6826 184L128 183.6859L135.1836 176L136 175.3731L142.6244 168ZM53.0804 192L56 189.6928L64 191.6855L64.5895 192L70.5295 200L72 200.9163L80 205.8198L85.0449 208L81.572 216L80 216.6073L72 216.8496L68.8898 216L64 213.9914L56 211.2723L49.2175 208L48 206.904L40 202.6726L39.3395 200L40 199.4881L48 196.4463L53.0804 192Z" fill-rule="evenodd" fill="var(--color, #cf4d9b)" fill-opacity="0.58"/><path d="M182.0843 32L184 31.4483L192 27.8463L200 27.1353L208 27.102L216 29.0648L224 31.2767L232 29.9735L240 29.1655L248 28.7982L256 30.7723L264 28.3798L272 27.3863L280 28.511L283.6892 32L288 37.4689L291.6109 40L293.8795 48L293.1214 56L288 61.6923L284.096 56L282.5006 48L280 45.9624L272 44.6368L264 43.1673L256 46.284L254.8684 48L249.6201 56L248 57.6L241.1889 64L240.775 72L240 73.5988L232 78.4245L228.0839 80L224 83.3274L221.723 88L216.6239 96L216 98.1035L214.2321 104L216 107.7734L218.6668 112L224 117.6348L232 117.9699L235.5753 120L234.5711 128L240 133.8416L241.6584 136L248 143.9895L248.0211 144L256 148.633L264 150.6919L265.7781 152L264 155.006L256 154.3066L252.904 152L248 144.0184L247.9238 144L240 141.2549L232 138.2512L224 143.4638L222.2874 144L216 145.2987L208 151.9414L207.9124 152L200 156.988L193.2528 152L197.2593 144L200 141.6627L204.0445 136L203.6403 128L202.1493 120L201.3135 112L200 111.1104L192 107.302L191.0237 104L192 101.2791L193.5438 96L198.7538 88L200 82.3519L201.1221 80L208 76.0422L212.6566 72L213.5663 64L211.1656 56L210.4852 48L208 47.063L200 46.8253L192 43.4453L184 40.7341L183.2792 40L182.0843 32ZM143.4613 56L144 55.0166L151.5254 56L144 58.504L143.4613 56ZM127.1445 72L128 71.6858L129.6672 72L136 73.0504L144 77.2536L146.8263 80L152 85.5804L153.0709 88L156.9742 96L157.145 104L153.1258 112L152 112.5888L144 112.2021L143.097 112L136 110.889L128 111.0592L120 104.8873L119.3483 104L118.0962 96L120 93.5436L123.9717 88L124.7642 80L127.1445 72ZM68.8275 80L72 74.8957L80 74.8212L87.5719 80L88 80.9409L93.7187 88L88 94.1309L87.2876 96L85.0854 104L80 106.268L72 110.3211L70.1118 112L64 118.1615L62.4105 120L56 126.4234L53.1538 128L48 131.7594L40 130.8529L32 129.4145L30.9809 128L27.6423 120L24.2635 112L25.0233 104L28.0259 96L32 91.7814L40 92.2379L48 94.6503L56 91.0382L58.0745 88L64 84.3959L68.8275 80ZM290.1944 96L296 92.2687L304 94.9896L304.62 96L304.7838 104L306.9652 112L307.3686 120L305.2535 128L304 128.8972L296 129.9017L292.1608 128L288.4189 120L288 119.4421L284.2591 112L285.6131 104L288 98.6312L290.1944 96ZM146.6234 168L152 164.7665L160 164.8806L166.1182 168L168 170.4831L170.2153 176L168 179.5918L164.6133 184L160 189.902L158.1049 192L159.109 200L160 202.7972L164.6854 208L160 208.9647L152 211.4827L144 212.2162L136 211.5161L132.5782 208L133.162 200L132.9016 192L133.2579 184L136 180.9074L137.8457 176L144 169.0983L146.6234 168ZM269.103 168L272 162.1371L280 162.1633L288 165.7159L293.1186 168L296 172.2047L297.6738 176L304 182.0864L305.9287 184L308.2746 192L310.5356 200L304 207.0139L303.3712 208L296 211.8889L288 211.1844L280 208.6886L278.0162 208L272 203.6604L264.3629 208L264 208.0899L256 209.2959L252.6423 208L248 201.6771L247.3165 200L248 198.8037L256 193.4248L261.1356 192L264 186.0876L265.0716 184L266.775 176L269.103 168ZM59.0225 208L64 201.4882L72 205.5831L77.831 208L72 211.4961L64 210.1529L59.0225 208Z" fill-rule="evenodd" fill="var(--color, #cf4d9b)" fill-opacity="0.86"/></g></svg>
