<svg xmlns="http://www.w3.org/2000/svg" version="1.1" viewBox="0 0 360 240" role="img" aria-label="Sixteen beds across the same section"><g><path d="M0 -240L6 -240L12 -240L18 -240L24 -240L30 -240L36 -240L42 -240L48 -240L54 -240L60 -240L66 -240L72 -240L78 -240L84 -240L90 -240L96 -240L102 -240L108 -240L114 -240L120 -240L126 -240L132 -240L138 -240L144 -240L150 -240L156 -240L162 -240L168 -240L174 -240L180 -240L186 -240L192 -240L198 -240L204 -240L210 -240L216 -240L222 -240L228 -240L234 -240L240 -240L246 -240L252 -240L258 -240L264 -240L270 -240L276 -240L282 -240L288 -240L294 -240L300 -240L306 -240L312 -240L318 -240L324 -240L330 -240L336 -240L342 -240L348 -240L354 -240L360 -240L360 32.0673L354 30.8968L348 29.7466L342 28.6549L336 27.6572L330 26.7849L324 26.0634L318 25.5109L312 25.1362L306 24.9374L300 24.9L294 24.9955L288 25.1795L282 25.3965L276 25.6516L270 25.9773L264 26.3764L258 26.8287L252 27.2982L246 27.74L240 28.1054L234 28.3474L228 28.4239L222 28.3018L216 27.9585L210 27.3837L204 26.5804L198 25.5641L192 24.3621L186 23.0119L180 21.5579L174 20.0485L168 18.5314L162 17.0484L156 15.6296L150 14.2862L144 13.0033L138 11.7451L132 10.5426L126 9.4497L120 8.5038L114 7.7272L108 7.1286L102 6.7053L96 6.4443L90 6.324L84 6.3162L78 6.3876L72 6.5014L66 6.619L60 6.7014L54 6.7114L48 6.6149L42 6.3825L36 5.9914L30 5.4268L24 4.6838L18 3.7688L12 2.7016L6 1.5163L0 0.2639Z" fill="var(--color, #cf4d9b)" fill-opacity="0.22"/><path d="M0 0.2639L6 1.5163L12 2.7016L18 3.7688L24 4.6838L30 5.4268L36 5.9914L42 6.3825L48 6.6149L54 6.7114L60 6.7014L66 6.619L72 6.5014L78 6.3876L84 6.3162L90 6.324L96 6.4443L102 6.7053L108 7.1286L114 7.7272L120 8.5038L126 9.4497L132 10.5426L138 11.7451L144 13.0033L150 14.2862L156 15.6296L162 17.0484L168 18.5314L174 20.0485L180 21.5579L186 23.0119L192 24.3621L198 25.5641L204 26.5804L210 27.3837L216 27.9585L222 28.3018L228 28.4239L234 28.3474L240 28.1054L246 27.74L252 27.2982L258 26.8287L264 26.3764L270 25.9773L276 25.6516L282 25.3965L288 25.1795L294 24.9955L300 24.9L306 24.9374L312 25.1362L318 25.5109L324 26.0634L330 26.7849L336 27.6572L342 28.6549L348 29.7466L354 30.8968L360 32.0673L360 42.5056L354 41.8376L348 41.177L342 40.5373L336 39.9313L330 39.3702L324 38.8632L318 38.4166L312 38.0338L306 37.7139L300 37.4518L294 37.2373L288 37.0546L282 36.8844L276 36.7394L270 36.6426L264 36.5992L258 36.5998L252 36.6253L246 36.6502L240 36.6462L234 36.5851L228 36.4411L222 36.1926L216 35.8238L210 35.3258L204 34.6968L198 33.9424L192 33.075L186 32.113L180 31.0794L174 30L168 28.9011L162 27.8065L156 26.7347L150 25.6946L144 24.6819L138 23.6866L132 22.7653L126 21.982L120 21.3716L114 20.9455L108 20.6954L102 20.5984L96 20.6207L90 20.7213L84 20.8551L78 20.9763L72 21.0404L66 21.0067L60 20.84L54 20.5121L48 20.0029L42 19.3012L36 18.4047L30 17.3204L24 16.0642L18 14.6599L12 13.1381L6 11.5352L0 9.8909Z" fill="var(--color, #cf4d9b)" fill-opacity="0.262"/><path d="M0 9.8909L6 11.5352L12 13.1381L18 14.6599L24 16.0642L30 17.3204L36 18.4047L42 19.3012L48 20.0029L54 20.5121L60 20.84L66 21.0067L72 21.0404L78 20.9763L84 20.8551L90 20.7213L96 20.6207L102 20.5984L108 20.6954L114 20.9455L120 21.3716L126 21.982L132 22.7653L138 23.6866L144 24.6819L150 25.6946L156 26.7347L162 27.8065L168 28.9011L174 30L180 31.0794L186 32.113L192 33.075L198 33.9424L204 34.6968L210 35.3258L216 35.8238L222 36.1926L228 36.4411L234 36.5851L240 36.6462L246 36.6502L252 36.6253L258 36.5998L264 36.5992L270 36.6426L276 36.7394L282 36.8844L288 37.0546L294 37.2373L300 37.4518L306 37.7139L312 38.0338L318 38.4166L324 38.8632L330 39.3702L336 39.9313L342 40.5373L348 41.177L354 41.8376L360 42.5056L360 57.4759L354 57.3164L348 57.1002L342 56.83L336 56.5116L330 56.1537L324 55.7665L318 55.3618L312 54.9512L306 54.5455L300 54.1529L294 53.7775L288 53.4173L282 53.0646L276 52.7275L270 52.4215L264 52.1506L258 51.9108L252 51.6915L246 51.4785L240 51.2554L234 51.0057L228 50.7136L222 50.366L216 49.9525L210 49.4668L204 48.9063L198 48.2728L192 47.572L186 46.813L180 46.0081L174 45.171L168 44.3162L162 43.4574L156 42.6056L150 41.7669L144 40.9406L138 40.1207L132 39.3188L126 38.5483L120 37.814L114 37.1136L108 36.4398L102 35.7819L96 35.1273L90 34.4626L84 33.7749L78 33.0525L72 32.286L66 31.4681L60 30.5948L54 29.665L48 28.6804L42 27.6457L36 26.568L30 25.456L24 24.3197L18 23.1688L12 22.0121L6 20.8559L0 19.7024Z" fill="var(--color, #cf4d9b)" fill-opacity="0.304"/><path d="M0 19.7024L6 20.8559L12 22.0121L18 23.1688L24 24.3197L30 25.456L36 26.568L42 27.6457L48 28.6804L54 29.665L60 30.5948L66 31.4681L72 32.286L78 33.0525L84 33.7749L90 34.4626L96 35.1273L102 35.7819L108 36.4398L114 37.1136L120 37.814L126 38.5483L132 39.3188L138 40.1207L144 40.9406L150 41.7669L156 42.6056L162 43.4574L168 44.3162L174 45.171L180 46.0081L186 46.813L192 47.572L198 48.2728L204 48.9063L210 49.4668L216 49.9525L222 50.366L228 50.7136L234 51.0057L240 51.2554L246 51.4785L252 51.6915L258 51.9108L264 52.1506L270 52.4215L276 52.7275L282 53.0646L288 53.4173L294 53.7775L300 54.1529L306 54.5455L312 54.9512L318 55.3618L324 55.7665L330 56.1537L336 56.5116L342 56.83L348 57.1002L354 57.3164L360 57.4759L360 86.256L354 86.0699L348 85.5413L342 84.69L336 83.5533L330 82.1843L324 80.6475L318 79.0142L312 77.356L306 75.7376L300 74.2078L294 72.7895L288 71.4689L282 70.186L276 68.8836L270 67.5487L264 66.1922L258 64.8413L252 63.5335L246 62.3106L240 61.2142L234 60.282L228 59.544L222 59.0206L216 58.7208L210 58.6413L204 58.7664L198 59.0691L192 59.512L186 60.0501L180 60.6335L174 61.2117L168 61.7376L162 62.1736L156 62.497L150 62.7079L144 62.8361L138 62.9331L132 62.9656L126 62.8671L120 62.587L114 62.0901L108 61.3559L102 60.378L96 59.163L90 57.7294L84 56.106L78 54.3306L72 52.4483L66 50.5092L60 48.5666L54 46.6747L48 44.8859L42 43.2484L36 41.803L30 40.5804L24 39.5977L18 38.8552L12 38.3325L6 37.9851L0 37.7401Z" fill="var(--color, #cf4d9b)" fill-opacity="0.346"/><path d="M0 37.7401L6 37.9851L12 38.3325L18 38.8552L24 39.5977L30 40.5804L36 41.803L42 43.2484L48 44.8859L54 46.6747L60 48.5666L66 50.5092L72 52.4483L78 54.3306L84 56.106L90 57.7294L96 59.163L102 60.378L108 61.3559L114 62.0901L120 62.587L126 62.8671L132 62.9656L138 62.9331L144 62.8361L150 62.7079L156 62.497L162 62.1736L168 61.7376L174 61.2117L180 60.6335L186 60.0501L192 59.512L198 59.0691L204 58.7664L210 58.6413L216 58.7208L222 59.0206L228 59.544L234 60.282L240 61.2142L246 62.3106L252 63.5335L258 64.8413L264 66.1922L270 67.5487L276 68.8836L282 70.186L288 71.4689L294 72.7895L300 74.2078L306 75.7376L312 77.356L318 79.0142L324 80.6475L330 82.1843L336 83.5533L342 84.69L348 85.5413L354 86.0699L360 86.256L360 114.9828L354 115.0175L348 114.4074L342 113.1813L336 111.402L330 109.1622L324 106.5774L318 103.7773L312 100.8941L306 98.049L300 95.3364L294 92.8051L288 90.4383L282 88.1408L276 85.8785L270 83.7085L264 81.6939L258 79.8959L252 78.3693L246 77.1587L240 76.2951L234 75.7939L228 75.6536L222 75.8549L216 76.3616L210 77.1215L204 78.0683L198 79.1247L192 80.2061L186 81.2251L180 82.0969L174 82.7459L168 83.1121L162 83.1601L156 82.8868L150 82.332L144 81.5884L138 80.7766L132 79.8289L126 78.6327L120 77.1323L114 75.3187L108 73.2189L102 70.8871L96 68.3954L90 65.8269L84 63.2688L78 60.8065L72 58.5189L66 56.4742L60 54.7268L54 53.3155L48 52.2616L42 51.5689L36 51.2239L30 51.1973L24 51.4466L18 51.9185L12 52.5538L6 53.2917L0 54.0761Z" fill="var(--color, #cf4d9b)" fill-opacity="0.388"/><path d="M0 54.0761L6 53.2917L12 52.5538L18 51.9185L24 51.4466L30 51.1973L36 51.2239L42 51.5689L48 52.2616L54 53.3155L60 54.7268L66 56.4742L72 58.5189L78 60.8065L84 63.2688L90 65.8269L96 68.3954L102 70.8871L108 73.2189L114 75.3187L120 77.1323L126 78.6327L132 79.8289L138 80.7766L144 81.5884L150 82.332L156 82.8868L162 83.1601L168 83.1121L174 82.7459L180 82.0969L186 81.2251L192 80.2061L198 79.1247L204 78.0683L210 77.1215L216 76.3616L222 75.8549L228 75.6536L234 75.7939L240 76.2951L246 77.1587L252 78.3693L258 79.8959L264 81.6939L270 83.7085L276 85.8785L282 88.1408L288 90.4383L294 92.8051L300 95.3364L306 98.049L312 100.8941L318 103.7773L324 106.5774L330 109.1622L336 111.402L342 113.1813L348 114.4074L354 115.0175L360 114.9828L360 124.3922L354 124.6941L348 124.4372L342 123.6292L336 122.3082L330 120.5392L324 118.4096L318 116.0219L312 113.4849L306 110.9029L300 108.3627L294 105.9184L288 103.5753L282 101.2784L276 99.0161L270 96.8462L264 94.8315L258 93.0335L252 91.5069L246 90.2963L240 89.4327L234 88.9316L228 88.7912L222 88.9925L216 89.4992L210 90.2591L204 91.2059L198 92.2623L192 93.3437L186 94.3627L180 95.2345L174 95.8835L168 96.2497L162 96.2977L156 96.0244L150 95.4696L144 94.726L138 93.9169L132 92.9948L126 91.869L120 90.4994L114 88.886L108 87.0595L102 85.0728L96 82.9929L90 80.8939L84 78.8514L78 76.9373L72 75.2152L66 73.7375L60 72.5428L54 71.6544L48 71.0798L42 70.8105L36 70.8238L30 71.0845L24 71.5478L18 72.1632L12 72.8795L6 73.65L0 74.4394Z" fill="var(--color, #cf4d9b)" fill-opacity="0.43"/><path d="M0 74.4394L6 73.65L12 72.8795L18 72.1632L24 71.5478L30 71.0845L36 70.8238L42 70.8105L48 71.0798L54 71.6544L60 72.5428L66 73.7375L72 75.2152L78 76.9373L84 78.8514L90 80.8939L96 82.9929L102 85.0728L108 87.0595L114 88.886L120 90.4994L126 91.869L132 92.9948L138 93.9169L144 94.726L150 95.4696L156 96.0244L162 96.2977L168 96.2497L174 95.8835L180 95.2345L186 94.3627L192 93.3437L198 92.2623L204 91.2059L210 90.2591L216 89.4992L222 88.9925L228 88.7912L234 88.9316L240 89.4327L246 90.2963L252 91.5069L258 93.0335L264 94.8315L270 96.8462L276 99.0161L282 101.2784L288 103.5753L294 105.9184L300 108.3627L306 110.9029L312 113.4849L318 116.0219L324 118.4096L330 120.5392L336 122.3082L342 123.6292L348 124.4372L354 124.6941L360 124.3922L360 146.77L354 146.5737L348 145.6352L342 143.9878L336 141.7041L330 138.8908L324 135.6812L318 132.2244L312 128.6729L306 125.1661L300 121.8125L294 118.6683L288 115.7139L282 112.8369L276 109.9662L270 107.1327L264 104.3973L258 101.8371L252 99.5348L246 97.5702L240 96.0121L234 94.9128L228 94.3032L222 94.1904L216 94.5554L210 95.3541L204 96.5181L198 97.9578L192 99.5673L186 101.23L180 102.8265L174 104.2433L168 105.3835L162 106.1787L156 106.6027L150 106.6862L144 106.5339L138 106.3073L132 106.0088L126 105.5731L120 104.9601L114 104.1513L108 103.1463L102 101.9592L96 100.6161L90 99.1514L84 97.6057L78 96.023L72 94.4481L66 92.9252L60 91.4951L54 90.1943L48 89.0528L42 88.0931L36 87.3293L30 86.7655L24 86.396L18 86.2039L12 86.1613L6 86.2292L0 86.3573Z" fill="var(--color, #cf4d9b)" fill-opacity="0.472"/><path d="M0 86.3573L6 86.2292L12 86.1613L18 86.2039L24 86.396L30 86.7655L36 87.3293L42 88.0931L48 89.0528L54 90.1943L60 91.4951L66 92.9252L72 94.4481L78 96.023L84 97.6057L90 99.1514L96 100.6161L102 101.9592L108 103.1463L114 104.1513L120 104.9601L126 105.5731L132 106.0088L138 106.3073L144 106.5339L150 106.6862L156 106.6027L162 106.1787L168 105.3835L174 104.2433L180 102.8265L186 101.23L192 99.5673L198 97.9578L204 96.5181L210 95.3541L216 94.5554L222 94.1904L228 94.3032L234 94.9128L240 96.0121L246 97.5702L252 99.5348L258 101.8371L264 104.3973L270 107.1327L276 109.9662L282 112.8369L288 115.7139L294 118.6683L300 121.8125L306 125.1661L312 128.6729L318 132.2244L324 135.6812L330 138.8908L336 141.7041L342 143.9878L348 145.6352L354 146.5737L360 146.77L360 154.3091L354 153.8292L348 152.847L342 151.3903L336 149.5135L330 147.2936L324 144.8248L318 142.2112L312 139.5577L306 136.9589L300 134.4868L294 132.1757L288 130.0059L282 127.8899L276 125.7351L270 123.5151L264 121.2494L258 118.9895L252 116.8061L246 114.7795L240 112.9895L234 111.5083L228 110.3943L222 109.6873L216 109.4056L210 109.5442L204 110.0743L198 110.9453L192 112.0872L186 113.4148L180 114.8338L174 116.248L168 117.5679L162 118.7213L156 119.6649L150 120.3973L144 120.9745L138 121.4929L132 121.8944L126 122.07L120 121.9493L114 121.4957L108 120.7017L102 119.5837L96 118.1783L90 116.5374L84 114.7243L78 112.81L72 110.8693L66 108.9775L60 107.207L54 105.6244L48 104.2873L42 103.2422L36 102.5214L30 102.1411L24 102.0996L18 102.3747L12 102.9227L6 103.6766L0 104.5452Z" fill="var(--color, #cf4d9b)" fill-opacity="0.514"/><path d="M0 104.5452L6 103.6766L12 102.9227L18 102.3747L24 102.0996L30 102.1411L36 102.5214L42 103.2422L48 104.2873L54 105.6244L60 107.207L66 108.9775L72 110.8693L78 112.81L84 114.7243L90 116.5374L96 118.1783L102 119.5837L108 120.7017L114 121.4957L120 121.9493L126 122.07L132 121.8944L138 121.4929L144 120.9745L150 120.3973L156 119.6649L162 118.7213L168 117.5679L174 116.248L180 114.8338L186 113.4148L192 112.0872L198 110.9453L204 110.0743L210 109.5442L216 109.4056L222 109.6873L228 110.3943L234 111.5083L240 112.9895L246 114.7795L252 116.8061L258 118.9895L264 121.2494L270 123.5151L276 125.7351L282 127.8899L288 130.0059L294 132.1757L300 134.4868L306 136.9589L312 139.5577L318 142.2112L324 144.8248L330 147.2936L336 149.5135L342 151.3903L348 152.847L354 153.8292L360 154.3091L360 162.3954L354 162.2654L348 161.5508L342 160.2711L336 158.477L330 156.2466L324 153.6798L318 150.8904L312 147.996L306 145.1063L300 142.3086L294 139.652L288 137.1286L282 134.6592L276 132.1756L270 129.683L264 127.2237L258 124.863L252 122.6781L246 120.7487L240 119.1483L234 117.9382L228 117.1614L222 116.8397L216 116.971L210 117.5287L204 118.4625L198 119.7006L192 121.1534L186 122.7188L180 124.2889L174 125.7584L168 127.0339L162 128.0456L156 128.7595L150 129.192L144 129.4254L138 129.5842L132 129.5892L126 129.3045L120 128.6508L114 127.5973L108 126.1521L102 124.3548L96 122.2686L90 119.9733L84 117.5591L78 115.1209L72 112.7527L66 110.5437L60 108.574L54 106.9113L48 105.6081L42 104.6997L36 104.2028L30 104.114L24 104.4103L18 105.0486L12 105.967L6 107.0865L0 108.3123Z" fill="var(--color, #cf4d9b)" fill-opacity="0.556"/><path d="M0 108.3123L6 107.0865L12 105.967L18 105.0486L24 104.4103L30 104.114L36 104.2028L42 104.6997L48 105.6081L54 106.9113L60 108.574L66 110.5437L72 112.7527L78 115.1209L84 117.5591L90 119.9733L96 122.2686L102 124.3548L108 126.1521L114 127.5973L120 128.6508L126 129.3045L132 129.5892L138 129.5842L144 129.4254L150 129.192L156 128.7595L162 128.0456L168 127.0339L174 125.7584L180 124.2889L186 122.7188L192 121.1534L198 119.7006L204 118.4625L210 117.5287L216 116.971L222 116.8397L228 117.1614L234 117.9382L240 119.1483L246 120.7487L252 122.6781L258 124.863L264 127.2237L270 129.683L276 132.1756L282 134.6592L288 137.1286L294 139.652L300 142.3086L306 145.1063L312 147.996L318 150.8904L324 153.6798L330 156.2466L336 158.477L342 160.2711L348 161.5508L354 162.2654L360 162.3954L360 177.5774L354 177.7856L348 177.5682L342 176.926L336 175.8831L330 174.4849L324 172.7941L318 170.886L312 168.8418L306 166.7407L300 164.6502L294 162.6152L288 160.6453L282 158.7002L276 156.6949L270 154.5794L264 152.3598L258 150.0828L252 147.8217L246 145.6647L240 143.7037L234 142.0254L228 140.7044L222 139.7967L216 139.3364L210 139.3325L204 139.7686L198 140.6036L192 141.7741L186 143.1983L180 144.7823L174 146.4266L168 148.0361L162 149.5298L156 150.8536L150 151.9943L144 152.9946L138 153.9265L132 154.6325L126 154.9065L120 154.6207L114 153.7154L108 152.1872L102 150.0796L96 147.4724L90 144.4735L84 141.2096L78 137.8187L72 134.443L66 131.2217L60 128.2851L54 125.7495L48 123.7118L42 122.2452L36 121.3961L30 121.1803L24 121.5812L18 122.5472L12 123.9912L6 125.7893L0 127.7809Z" fill="var(--color, #cf4d9b)" fill-opacity="0.598"/><path d="M0 127.7809L6 125.7893L12 123.9912L18 122.5472L24 121.5812L30 121.1803L36 121.3961L42 122.2452L48 123.7118L54 125.7495L60 128.2851L66 131.2217L72 134.443L78 137.8187L84 141.2096L90 144.4735L96 147.4724L102 150.0796L108 152.1872L114 153.7154L120 154.6207L126 154.9065L132 154.6325L138 153.9265L144 152.9946L150 151.9943L156 150.8536L162 149.5298L168 148.0361L174 146.4266L180 144.7823L186 143.1983L192 141.7741L198 140.6036L204 139.7686L210 139.3325L216 139.3364L222 139.7967L228 140.7044L234 142.0254L240 143.7037L246 145.6647L252 147.8217L258 150.0828L264 152.3598L270 154.5794L276 156.6949L282 158.7002L288 160.6453L294 162.6152L300 164.6502L306 166.7407L312 168.8418L318 170.886L324 172.7941L330 174.4849L336 175.8831L342 176.926L348 177.5682L354 177.7856L360 177.5774L360 191.2165L354 191.9854L348 192.3109L342 192.161L336 191.5287L330 190.4322L324 188.9121L318 187.0279L312 184.8532L306 182.4689L300 179.955L294 177.3812L288 174.7955L282 172.2061L276 169.5234L270 166.6691L264 163.647L258 160.5213L252 157.3965L246 154.3999L240 151.6656L234 149.3214L228 147.4779L222 146.2205L216 145.6024L210 145.6417L204 146.3196L198 147.5814L192 149.3398L186 151.4809L180 153.8717L174 156.371L168 158.8422L162 161.1679L156 163.2681L150 165.1196L144 166.7782L138 168.358L132 169.7518L126 170.7772L120 171.3047L114 171.2536L108 170.5877L102 169.3103L96 167.459L90 165.1013L84 162.3289L78 159.2525L72 155.9965L66 152.6936L60 149.4787L54 146.4835L48 143.8305L42 141.6269L36 139.9585L30 138.8833L24 138.4256L18 138.5685L12 139.2485L6 140.3476L0 141.6871Z" fill="var(--color, #cf4d9b)" fill-opacity="0.64"/><path d="M0 141.6871L6 140.3476L12 139.2485L18 138.5685L24 138.4256L30 138.8833L36 139.9585L42 141.6269L48 143.8305L54 146.4835L60 149.4787L66 152.6936L72 155.9965L78 159.2525L84 162.3289L90 165.1013L96 167.459L102 169.3103L108 170.5877L114 171.2536L120 171.3047L126 170.7772L132 169.7518L138 168.358L144 166.7782L150 165.1196L156 163.2681L162 161.1679L168 158.8422L174 156.371L180 153.8717L186 151.4809L192 149.3398L198 147.5814L204 146.3196L210 145.6417L216 145.6024L222 146.2205L228 147.4779L234 149.3214L240 151.6656L246 154.3999L252 157.3965L258 160.5213L264 163.647L270 166.6691L276 169.5234L282 172.2061L288 174.7955L294 177.3812L300 179.955L306 182.4689L312 184.8532L318 187.0279L324 188.9121L330 190.4322L336 191.5287L342 192.161L348 192.3109L354 191.9854L360 191.2165L360 207.9189L354 206.9963L348 205.7061L342 204.0789L336 202.1642L330 200.0272L324 197.7444L318 195.3978L312 193.0675L306 190.8233L300 188.7148L294 186.7601L288 184.9332L282 183.1547L276 181.3597L270 179.5505L264 177.7658L258 176.0676L252 174.5305L246 173.232L240 172.2442L234 171.6277L228 171.426L222 171.6619L216 172.3356L210 173.4233L204 174.8782L198 176.6326L192 178.6013L186 180.6869L180 182.7857L174 184.7961L168 186.6279L162 188.2129L156 189.517L150 190.5546L144 191.403L138 192.1701L132 192.7054L126 192.7975L120 192.3164L114 191.2015L108 189.4508L102 187.1097L96 184.2614L90 181.017L84 177.5073L78 173.8739L72 170.2626L66 166.8155L60 163.6658L54 160.9313L48 158.7101L42 157.0759L36 156.0746L30 155.7211L24 155.9968L18 156.8481L12 158.1852L6 159.8815L0 161.7738Z" fill="var(--color, #cf4d9b)" fill-opacity="0.682"/><path d="M0 161.7738L6 159.8815L12 158.1852L18 156.8481L24 155.9968L30 155.7211L36 156.0746L42 157.0759L48 158.7101L54 160.9313L60 163.6658L66 166.8155L72 170.2626L78 173.8739L84 177.5073L90 181.017L96 184.2614L102 187.1097L108 189.4508L114 191.2015L120 192.3164L126 192.7975L132 192.7054L138 192.1701L144 191.403L150 190.5546L156 189.517L162 188.2129L168 186.6279L174 184.7961L180 182.7857L186 180.6869L192 178.6013L198 176.6326L204 174.8782L210 173.4233L216 172.3356L222 171.6619L228 171.426L234 171.6277L240 172.2442L246 173.232L252 174.5305L258 176.0676L264 177.7658L270 179.5505L276 181.3597L282 183.1547L288 184.9332L294 186.7601L300 188.7148L306 190.8233L312 193.0675L318 195.3978L324 197.7444L330 200.0272L336 202.1642L342 204.0789L348 205.7061L354 206.9963L360 207.9189L360 221.5117L354 221.696L348 221.492L342 220.8916L336 219.908L330 218.5747L324 216.9423L318 215.0743L312 213.0419L306 210.9169L300 208.7635L294 206.6287L288 204.5318L282 202.4554L276 200.4005L270 198.4144L264 196.5602L258 194.9073L252 193.524L246 192.4713L240 191.7979L234 191.5359L228 191.6985L222 192.278L216 193.2455L210 194.5514L204 196.1276L198 197.8901L192 199.7433L186 201.5852L180 203.3143L174 204.8364L168 206.0742L162 206.9768L156 207.5306L150 207.7719L144 207.8003L138 207.7491L132 207.5258L126 206.9838L120 206.0448L114 204.6872L108 202.9346L102 200.8449L96 198.5006L90 196L84 193.4493L78 190.9558L72 188.6216L66 186.539L60 184.7859L54 183.4226L48 182.4901L42 182.008L36 181.9748L30 182.368L24 183.1455L18 184.2485L12 185.6044L6 187.1313L0 188.7431Z" fill="var(--color, #cf4d9b)" fill-opacity="0.724"/><path d="M0 188.7431L6 187.1313L12 185.6044L18 184.2485L24 183.1455L30 182.368L36 181.9748L42 182.008L48 182.4901L54 183.4226L60 184.7859L66 186.539L72 188.6216L78 190.9558L84 193.4493L90 196L96 198.5006L102 200.8449L108 202.9346L114 204.6872L120 206.0448L126 206.9838L132 207.5258L138 207.7491L144 207.8003L150 207.7719L156 207.5306L162 206.9768L168 206.0742L174 204.8364L180 203.3143L186 201.5852L192 199.7433L198 197.8901L204 196.1276L210 194.5514L216 193.2455L222 192.278L228 191.6985L234 191.5359L240 191.7979L246 192.4713L252 193.524L258 194.9073L264 196.5602L270 198.4144L276 200.4005L282 202.4554L288 204.5318L294 206.6287L300 208.7635L306 210.9169L312 213.0419L318 215.0743L324 216.9423L330 218.5747L336 219.908L342 220.8916L348 221.492L354 221.696L360 221.5117L360 237.1831L354 236.5207L348 235.4927L342 234.1331L336 232.4951L330 230.6466L324 228.6668L318 226.6392L312 224.6447L306 222.7532L300 221.0127L294 219.4386L288 218.0008L282 216.6147L276 215.2173L270 213.8119L264 212.4309L258 211.1244L252 209.9522L246 208.9759L240 208.2527L234 207.83L228 207.7416L222 208.0045L216 208.6177L210 209.5608L204 210.7953L198 212.2661L192 213.9041L186 215.6306L180 217.3624L174 219.0181L168 220.5255L162 221.8304L156 222.9064L150 223.7659L144 224.4721L138 225.1079L132 225.5187L126 225.5065L120 224.9578L114 223.8302L108 222.1391L102 219.9455L96 217.3447L90 214.4555L84 211.4112L78 208.3509L72 205.4118L66 202.7226L60 200.3979L54 198.5332L48 197.2014L42 196.4497L36 196.2977L30 196.7364L24 197.7282L18 199.2077L12 201.0835L6 203.2412L0 205.5469Z" fill="var(--color, #cf4d9b)" fill-opacity="0.766"/><path d="M0 205.5469L6 203.2412L12 201.0835L18 199.2077L24 197.7282L30 196.7364L36 196.2977L42 196.4497L48 197.2014L54 198.5332L60 200.3979L66 202.7226L72 205.4118L78 208.3509L84 211.4112L90 214.4555L96 217.3447L102 219.9455L108 222.1391L114 223.8302L120 224.9578L126 225.5065L132 225.5187L138 225.1079L144 224.4721L150 223.7659L156 222.9064L162 221.8304L168 220.5255L174 219.0181L180 217.3624L186 215.6306L192 213.9041L198 212.2661L204 210.7953L210 209.5608L216 208.6177L222 208.0045L228 207.7416L234 207.83L240 208.2527L246 208.9759L252 209.9522L258 211.1244L264 212.4309L270 213.8119L276 215.2173L282 216.6147L288 218.0008L294 219.4386L300 221.0127L306 222.7532L312 224.6447L318 226.6392L324 228.6668L330 230.6466L336 232.4951L342 234.1331L348 235.4927L354 236.5207L360 237.1831L360 249.6154L354 248.6403L348 247.194L342 245.3251L336 243.1058L330 240.6279L324 237.9964L318 235.3214L312 232.7087L306 230.2483L300 228.001L294 225.9837L288 224.1523L282 222.3937L276 220.657L270 218.9871L264 217.4464L258 216.1037L252 215.0272L246 214.2779L240 213.9046L234 213.9399L228 214.3976L222 215.2704L216 216.5303L210 218.1284L204 219.9973L198 222.0537L192 224.2028L186 226.3433L180 228.3738L174 230.2008L168 231.7469L162 232.9611L156 233.8296L150 234.3881L144 234.7352L138 234.9997L132 235.0644L126 234.7562L120 233.9795L114 232.703L108 230.9478L102 228.7746L96 226.274L90 223.556L84 220.7417L78 217.955L72 215.3163L66 212.936L60 210.9101L54 209.3159L48 208.2091L42 207.6217L36 207.5611L30 208.0099L24 208.9267L18 210.248L12 211.8912L6 213.7578L0 215.7387Z" fill="var(--color, #cf4d9b)" fill-opacity="0.808"/><path d="M0 215.7387L6 213.7578L12 211.8912L18 210.248L24 208.9267L30 208.0099L36 207.5611L42 207.6217L48 208.2091L54 209.3159L60 210.9101L66 212.936L72 215.3163L78 217.955L84 220.7417L90 223.556L96 226.274L102 228.7746L108 230.9478L114 232.703L120 233.9795L126 234.7562L132 235.0644L138 234.9997L144 234.7352L150 234.3881L156 233.8296L162 232.9611L168 231.7469L174 230.2008L180 228.3738L186 226.3433L192 224.2028L198 222.0537L204 219.9973L210 218.1284L216 216.5303L222 215.2704L228 214.3976L234 213.9399L240 213.9046L246 214.2779L252 215.0272L258 216.1037L264 217.4464L270 218.9871L276 220.657L282 222.3937L288 224.1523L294 225.9837L300 228.001L306 230.2483L312 232.7087L318 235.3214L324 237.9964L330 240.6279L336 243.1058L342 245.3251L348 247.194L354 248.6403L360 249.6154L360 480L354 480L348 480L342 480L336 480L330 480L324 480L318 480L312 480L306 480L300 480L294 480L288 480L282 480L276 480L270 480L264 480L258 480L252 480L246 480L240 480L234 480L228 480L222 480L216 480L210 480L204 480L198 480L192 480L186 480L180 480L174 480L168 480L162 480L156 480L150 480L144 480L138 480L132 480L126 480L120 480L114 480L108 480L102 480L96 480L90 480L84 480L78 480L72 480L66 480L60 480L54 480L48 480L42 480L36 480L30 480L24 480L18 480L12 480L6 480L0 480Z" fill="var(--color, #cf4d9b)" fill-opacity="0.85"/></g></svg>
