<svg xmlns="http://www.w3.org/2000/svg" version="1.1" viewBox="0 0 360 240" role="img" aria-label="Twenty-four cells without relaxation"><g><polygon points="0,0 42.5531,0 63.7068,44.598 42.9273,68.5985 0,42.1962" fill="var(--color, #cf4d9b)" fill-opacity="0.24"/><polygon points="42.5531,0 113.0122,0 103.5096,43.8056 98.6963,47.893 63.7068,44.598" fill="var(--color, #cf4d9b)" fill-opacity="0.12"/><polygon points="113.0122,0 159.0992,0 173.7132,58.4518 103.5096,43.8056" fill="var(--color, #cf4d9b)" fill-opacity="0.6"/><polygon points="159.0992,0 230.4811,0 210.2027,54.1756 207.5578,57.1712 180.2931,65.8028 173.7132,58.4518" fill="var(--color, #cf4d9b)" fill-opacity="0.72"/><polygon points="230.4811,0 290.9915,0 293.783,48.9311 210.2027,54.1756" fill="var(--color, #cf4d9b)" fill-opacity="0.24"/><polygon points="290.9915,0 360,0 360,68.4087 297.2753,56.9441 293.783,48.9311" fill="var(--color, #cf4d9b)" fill-opacity="0.6"/><polygon points="0,117.0165 0,42.1962 42.9273,68.5985 40.2984,103.4245" fill="var(--color, #cf4d9b)" fill-opacity="0.36"/><polygon points="40.2984,103.4245 42.9273,68.5985 63.7068,44.598 98.6963,47.893 103.9259,110.2997 92.8117,118.9078 64.1864,116.2483" fill="var(--color, #cf4d9b)" fill-opacity="0.24"/><polygon points="103.9259,110.2997 98.6963,47.893 103.5096,43.8056 173.7132,58.4518 180.2931,65.8028 166.4497,108.6836" fill="var(--color, #cf4d9b)" fill-opacity="0.24"/><polygon points="177.6326,130.4744 166.4497,108.6836 180.2931,65.8028 207.5578,57.1712 255.2266,102.8174" fill="var(--color, #cf4d9b)" fill-opacity="0.36"/><polygon points="255.2266,102.8174 207.5578,57.1712 210.2027,54.1756 293.783,48.9311 297.2753,56.9441 277.3362,109.0402 275.254,110.8566" fill="var(--color, #cf4d9b)" fill-opacity="0.24"/><polygon points="360,68.4087 360,124.8531 277.3362,109.0402 297.2753,56.9441" fill="var(--color, #cf4d9b)" fill-opacity="0.6"/><polygon points="0,154.4939 0,117.0165 40.2984,103.4245 64.1864,116.2483 41.7955,179.3617" fill="var(--color, #cf4d9b)" fill-opacity="0.48"/><polygon points="58.518,208.1412 41.7955,179.3617 64.1864,116.2483 92.8117,118.9078 98.4673,155.0219" fill="var(--color, #cf4d9b)" fill-opacity="0.48"/><polygon points="98.4673,155.0219 92.8117,118.9078 103.9259,110.2997 166.4497,108.6836 177.6326,130.4744 180.7467,145.0157 160.3783,178.3093 143.1496,183.4571" fill="var(--color, #cf4d9b)" fill-opacity="0.24"/><polygon points="180.7467,145.0157 177.6326,130.4744 255.2266,102.8174 275.254,110.8566 272.5523,128.7417 228.8547,164.7444" fill="var(--color, #cf4d9b)" fill-opacity="0.48"/><polygon points="302.1109,216.3435 231.3913,173.1921 228.8547,164.7444 272.5523,128.7417 309.3939,183.5735" fill="var(--color, #cf4d9b)" fill-opacity="0.24"/><polygon points="360,124.8531 360,146.8681 309.3939,183.5735 272.5523,128.7417 275.254,110.8566 277.3362,109.0402" fill="var(--color, #cf4d9b)" fill-opacity="0.48"/><polygon points="59.8023,240 0,240 0,154.4939 41.7955,179.3617 58.518,208.1412" fill="var(--color, #cf4d9b)" fill-opacity="0.36"/><polygon points="101.0899,240 59.8023,240 58.518,208.1412 98.4673,155.0219 143.1496,183.4571" fill="var(--color, #cf4d9b)" fill-opacity="0.48"/><polygon points="196.0275,240 101.0899,240 143.1496,183.4571 160.3783,178.3093" fill="var(--color, #cf4d9b)" fill-opacity="0.48"/><polygon points="212.2364,240 196.0275,240 160.3783,178.3093 180.7467,145.0157 228.8547,164.7444 231.3913,173.1921" fill="var(--color, #cf4d9b)" fill-opacity="0.48"/><polygon points="305.0106,240 212.2364,240 231.3913,173.1921 302.1109,216.3435" fill="var(--color, #cf4d9b)" fill-opacity="0.48"/><polygon points="360,146.8681 360,240 305.0106,240 302.1109,216.3435 309.3939,183.5735" fill="var(--color, #cf4d9b)" fill-opacity="0.36"/><polygon points="0,0 42.5531,0 63.7068,44.598 42.9273,68.5985 0,42.1962" fill="none" stroke="var(--color, #cf4d9b)" stroke-width="1.2"/><polygon points="42.5531,0 113.0122,0 103.5096,43.8056 98.6963,47.893 63.7068,44.598" fill="none" stroke="var(--color, #cf4d9b)" stroke-width="1.2"/><polygon points="113.0122,0 159.0992,0 173.7132,58.4518 103.5096,43.8056" fill="none" stroke="var(--color, #cf4d9b)" stroke-width="1.2"/><polygon points="159.0992,0 230.4811,0 210.2027,54.1756 207.5578,57.1712 180.2931,65.8028 173.7132,58.4518" fill="none" stroke="var(--color, #cf4d9b)" stroke-width="1.2"/><polygon points="230.4811,0 290.9915,0 293.783,48.9311 210.2027,54.1756" fill="none" stroke="var(--color, #cf4d9b)" stroke-width="1.2"/><polygon points="290.9915,0 360,0 360,68.4087 297.2753,56.9441 293.783,48.9311" fill="none" stroke="var(--color, #cf4d9b)" stroke-width="1.2"/><polygon points="0,117.0165 0,42.1962 42.9273,68.5985 40.2984,103.4245" fill="none" stroke="var(--color, #cf4d9b)" stroke-width="1.2"/><polygon points="40.2984,103.4245 42.9273,68.5985 63.7068,44.598 98.6963,47.893 103.9259,110.2997 92.8117,118.9078 64.1864,116.2483" fill="none" stroke="var(--color, #cf4d9b)" stroke-width="1.2"/><polygon points="103.9259,110.2997 98.6963,47.893 103.5096,43.8056 173.7132,58.4518 180.2931,65.8028 166.4497,108.6836" fill="none" stroke="var(--color, #cf4d9b)" stroke-width="1.2"/><polygon points="177.6326,130.4744 166.4497,108.6836 180.2931,65.8028 207.5578,57.1712 255.2266,102.8174" fill="none" stroke="var(--color, #cf4d9b)" stroke-width="1.2"/><polygon points="255.2266,102.8174 207.5578,57.1712 210.2027,54.1756 293.783,48.9311 297.2753,56.9441 277.3362,109.0402 275.254,110.8566" fill="none" stroke="var(--color, #cf4d9b)" stroke-width="1.2"/><polygon points="360,68.4087 360,124.8531 277.3362,109.0402 297.2753,56.9441" fill="none" stroke="var(--color, #cf4d9b)" stroke-width="1.2"/><polygon points="0,154.4939 0,117.0165 40.2984,103.4245 64.1864,116.2483 41.7955,179.3617" fill="none" stroke="var(--color, #cf4d9b)" stroke-width="1.2"/><polygon points="58.518,208.1412 41.7955,179.3617 64.1864,116.2483 92.8117,118.9078 98.4673,155.0219" fill="none" stroke="var(--color, #cf4d9b)" stroke-width="1.2"/><polygon points="98.4673,155.0219 92.8117,118.9078 103.9259,110.2997 166.4497,108.6836 177.6326,130.4744 180.7467,145.0157 160.3783,178.3093 143.1496,183.4571" fill="none" stroke="var(--color, #cf4d9b)" stroke-width="1.2"/><polygon points="180.7467,145.0157 177.6326,130.4744 255.2266,102.8174 275.254,110.8566 272.5523,128.7417 228.8547,164.7444" fill="none" stroke="var(--color, #cf4d9b)" stroke-width="1.2"/><polygon points="302.1109,216.3435 231.3913,173.1921 228.8547,164.7444 272.5523,128.7417 309.3939,183.5735" fill="none" stroke="var(--color, #cf4d9b)" stroke-width="1.2"/><polygon points="360,124.8531 360,146.8681 309.3939,183.5735 272.5523,128.7417 275.254,110.8566 277.3362,109.0402" fill="none" stroke="var(--color, #cf4d9b)" stroke-width="1.2"/><polygon points="59.8023,240 0,240 0,154.4939 41.7955,179.3617 58.518,208.1412" fill="none" stroke="var(--color, #cf4d9b)" stroke-width="1.2"/><polygon points="101.0899,240 59.8023,240 58.518,208.1412 98.4673,155.0219 143.1496,183.4571" fill="none" stroke="var(--color, #cf4d9b)" stroke-width="1.2"/><polygon points="196.0275,240 101.0899,240 143.1496,183.4571 160.3783,178.3093" fill="none" stroke="var(--color, #cf4d9b)" stroke-width="1.2"/><polygon points="212.2364,240 196.0275,240 160.3783,178.3093 180.7467,145.0157 228.8547,164.7444 231.3913,173.1921" fill="none" stroke="var(--color, #cf4d9b)" stroke-width="1.2"/><polygon points="305.0106,240 212.2364,240 231.3913,173.1921 302.1109,216.3435" fill="none" stroke="var(--color, #cf4d9b)" stroke-width="1.2"/><polygon points="360,146.8681 360,240 305.0106,240 302.1109,216.3435 309.3939,183.5735" fill="none" stroke="var(--color, #cf4d9b)" stroke-width="1.2"/></g></svg>
